{"images":[{"uri":"Aberration_001_Body_02_C_T_cl.tga.png","name":"Aberration_001_Body_02_C_T_cl.tga.png"},{"uri":"Aberration_001_Body_02_A_T_cl.tga.png","name":"Aberration_001_Body_02_A_T_cl.tga.png"},{"uri":"Aberration_001_Body_01_A_T_cl.tga.png","name":"Aberration_001_Body_01_A_T_cl.tga.png"},{"uri":"Aberration_001_Body_01_A_T_no.tga.png","name":"Aberration_001_Body_01_A_T_no.tga.png"},{"uri":"Aberration_001_Body_01_A_T_no1.tga.png","name":"Aberration_001_Body_01_A_T_no1.tga.png"},{"uri":"Aberration_001_Body_01_C_T_cl.tga.png","name":"Aberration_001_Body_01_C_T_cl.tga.png"},{"uri":"Aberration_001_Body_02_B_T_cl.tga.png","name":"Aberration_001_Body_02_B_T_cl.tga.png"},{"uri":"Aberration_001_Body_01_A_T_mk3.tga.png","name":"Aberration_001_Body_01_A_T_mk3.tga.png"},{"uri":"Aberration_001_Body_01_B_T_cl.tga.png","name":"Aberration_001_Body_01_B_T_cl.tga.png"}],"accessors":[{"componentType":5126,"bufferView":0,"count":1,"type":"SCALAR","byteOffset":0},{"componentType":5123,"bufferView":1,"count":21288,"type":"SCALAR","byteOffset":0},{"componentType":5123,"bufferView":1,"count":21288,"type":"SCALAR","byteOffset":42576},{"componentType":5123,"bufferView":1,"count":21288,"type":"SCALAR","byteOffset":85152},{"componentType":5123,"bufferView":1,"count":21288,"type":"SCALAR","byteOffset":127728},{"componentType":5123,"bufferView":1,"count":21288,"type":"SCALAR","byteOffset":170304},{"componentType":5123,"bufferView":1,"count":21288,"type":"SCALAR","byteOffset":212880},{"componentType":5126,"max":[0.5822925567626953,0.27575668692588806,1.7850637435913086],"bufferView":2,"count":4561,"type":"VEC3","min":[-0.5822925567626953,-0.09337536245584488,-0.0017122458666563034],"byteOffset":0},{"componentType":5126,"bufferView":2,"count":4561,"type":"VEC3","byteOffset":12},{"componentType":5126,"bufferView":2,"count":4561,"type":"VEC4","byteOffset":24},{"componentType":5126,"bufferView":2,"count":4561,"type":"VEC2","byteOffset":40},{"componentType":5126,"max":[0.5822925567626953,0.27575668692588806,1.7850637435913086],"bufferView":3,"count":4561,"type":"VEC3","min":[-0.5822925567626953,-0.09337536245584488,-0.0017122458666563034],"byteOffset":0},{"componentType":5126,"bufferView":3,"count":4561,"type":"VEC3","byteOffset":12},{"componentType":5126,"bufferView":3,"count":4561,"type":"VEC4","byteOffset":24},{"componentType":5126,"bufferView":3,"count":4561,"type":"VEC2","byteOffset":40},{"componentType":5126,"max":[0.5822925567626953,0.27575668692588806,1.7850637435913086],"bufferView":4,"count":4561,"type":"VEC3","min":[-0.5822925567626953,-0.09337536245584488,-0.0017122458666563034],"byteOffset":0},{"componentType":5126,"bufferView":4,"count":4561,"type":"VEC3","byteOffset":12},{"componentType":5126,"bufferView":4,"count":4561,"type":"VEC4","byteOffset":24},{"componentType":5126,"bufferView":4,"count":4561,"type":"VEC2","byteOffset":40},{"componentType":5126,"max":[0.5822925567626953,0.27575668692588806,1.7850637435913086],"bufferView":5,"count":4561,"type":"VEC3","min":[-0.5822925567626953,-0.09337536245584488,-0.0017122458666563034],"byteOffset":0},{"componentType":5126,"bufferView":5,"count":4561,"type":"VEC3","byteOffset":12},{"componentType":5126,"bufferView":5,"count":4561,"type":"VEC4","byteOffset":24},{"componentType":5126,"bufferView":5,"count":4561,"type":"VEC2","byteOffset":40},{"componentType":5126,"max":[0.5822925567626953,0.27575668692588806,1.7850637435913086],"bufferView":6,"count":4561,"type":"VEC3","min":[-0.5822925567626953,-0.09337536245584488,-0.0017122458666563034],"byteOffset":0},{"componentType":5126,"bufferView":6,"count":4561,"type":"VEC3","byteOffset":12},{"componentType":5126,"bufferView":6,"count":4561,"type":"VEC4","byteOffset":24},{"componentType":5126,"bufferView":6,"count":4561,"type":"VEC2","byteOffset":40},{"componentType":5126,"max":[0.5822925567626953,0.27575668692588806,1.7850637435913086],"bufferView":7,"count":4561,"type":"VEC3","min":[-0.5822925567626953,-0.09337536245584488,-0.0017122458666563034],"byteOffset":0},{"componentType":5126,"bufferView":7,"count":4561,"type":"VEC3","byteOffset":12},{"componentType":5126,"bufferView":7,"count":4561,"type":"VEC4","byteOffset":24},{"componentType":5126,"bufferView":7,"count":4561,"type":"VEC2","byteOffset":40}],"textures":[{"source":0,"sampler":0},{"source":1,"sampler":0},{"source":2,"sampler":0},{"source":3,"sampler":0},{"source":4,"sampler":0},{"source":5,"sampler":0},{"source":6,"sampler":0},{"source":7,"sampler":0},{"source":8,"sampler":0}],"buffers":[{"byteLength":1569028,"uri":"buffer.bin"}],"bufferViews":[{"byteLength":4,"byteOffset":0,"buffer":0},{"byteLength":255456,"target":34963,"byteOffset":4,"buffer":0},{"byteLength":218928,"byteStride":48,"target":34962,"byteOffset":255460,"buffer":0},{"byteLength":218928,"byteStride":48,"target":34962,"byteOffset":474388,"buffer":0},{"byteLength":218928,"byteStride":48,"target":34962,"byteOffset":693316,"buffer":0},{"byteLength":218928,"byteStride":48,"target":34962,"byteOffset":912244,"buffer":0},{"byteLength":218928,"byteStride":48,"target":34962,"byteOffset":1131172,"buffer":0},{"byteLength":218928,"byteStride":48,"target":34962,"byteOffset":1350100,"buffer":0}],"samplers":[{"magFilter":9729,"minFilter":9987}],"scene":0,"nodes":[{"children":[1,2,3,4,5,6],"name":"RootNode"},{"rotation":[-0.70710676908493,0,0,0.70710676908493],"name":"Aberration_001_Body_01_A","translation":[-1.15355217456818,0,0.0671770349144936],"mesh":0},{"rotation":[-0.70710676908493,0,0,0.70710676908493],"name":"Aberration_001_Body_01_A001","translation":[0.0350058600306511,0,0.0671770349144936],"mesh":1},{"rotation":[-0.70710676908493,0,0,0.70710676908493],"name":"Aberration_001_Body_01_A002","translation":[1.22356390953064,0,0.0671770349144936],"mesh":2},{"rotation":[-0.70710676908493,0,0,0.70710676908493],"name":"Aberration_001_Body_01_A003","translation":[0.0350058600306511,0,-1.22574508190155],"mesh":3},{"rotation":[-0.70710676908493,0,0,0.70710676908493],"name":"Aberration_001_Body_01_A004","translation":[1.22356390953064,0,-1.22574508190155],"mesh":4},{"rotation":[-0.70710676908493,0,0,0.70710676908493],"name":"Aberration_001_Body_01_A005","translation":[-1.15355217456818,0,-1.22574508190155],"mesh":5},{"children":[0],"name":"Pivot","translation":[-0.035005867481230135,0.0017122452664542398,0.6704746418134233]}],"materials":[{"normalTexture":{"index":3},"pbrMetallicRoughness":{"roughnessFactor":0.49,"baseColorFactor":[1,1,1,1],"baseColorTexture":{"index":0},"metallicFactor":0},"emissiveFactor":[0.3111804990579844,1,0.06575388026033009],"extensions":{"KHR_materials_specular":{"specularFactor":0.3}},"name":"Aberration_001_Body_01_A_Mat","emissiveTexture":{"index":4}},{"normalTexture":{"index":3},"pbrMetallicRoughness":{"roughnessFactor":0.49,"baseColorFactor":[1,1,1,1],"baseColorTexture":{"index":6},"metallicFactor":0},"emissiveFactor":[0.000023328004666098932,0.8122414898984895,0.8912620368134188],"extensions":{"KHR_materials_specular":{"specularFactor":0.3}},"name":"ion_001_Body_02_A_Mat","emissiveTexture":{"index":4}},{"normalTexture":{"index":3},"pbrMetallicRoughness":{"roughnessFactor":0.53,"baseColorFactor":[1,1,1,1],"baseColorTexture":{"index":1},"metallicFactor":0},"emissiveFactor":[0.9489649381781952,0.0019634162133964697,0.0019634162133964697],"extensions":{"KHR_materials_specular":{"specularFactor":0.3}},"name":"ion_001_Body_03A_Mat","emissiveTexture":{"index":4}},{"normalTexture":{"index":3},"pbrMetallicRoughness":{"roughnessFactor":0.48,"baseColorFactor":[1,1,1,1],"baseColorTexture":{"index":5},"metallicFactor":0},"emissiveFactor":[0,0.907547199521614,1],"extensions":{"KHR_materials_specular":{"specularFactor":0.3}},"name":"ion_001_Body_05A_Mat","emissiveTexture":{"index":4}},{"normalTexture":{"index":3},"pbrMetallicRoughness":{"roughnessFactor":0.54,"baseColorFactor":[1,1,1,1],"baseColorTexture":{"index":8},"metallicFactor":0},"emissiveFactor":[0,1,0.41514809165590655],"extensions":{"KHR_materials_specular":{"specularFactor":0.3}},"name":"ion_001_Body_06A_Mat","emissiveTexture":{"index":4}},{"normalTexture":{"index":3},"pbrMetallicRoughness":{"roughnessFactor":0.53,"baseColorFactor":[1,1,1,1],"baseColorTexture":{"index":2},"metallicFactor":0},"emissiveFactor":[0.9658146535031301,0.012663720031582098,0.0003671362698159426],"extensions":{"KHR_materials_volume":{"attenuationColor":[0.6730490732809419,0.1939721670480931,0.1939721670480931],"thicknessFactor":1,"attenuationDistance":1,"thicknessTexture":{"index":7}},"KHR_materials_specular":{"specularFactor":0.3}},"name":"ion_001_Body_04A_Mat","emissiveTexture":{"index":4}}],"animations":[{"samplers":[],"channels":[],"name":"Take 001"}],"scenes":[{"nodes":[7],"name":"Root Scene"}],"asset":{"generator":"CG美术之家","source":"https://www.cgmszj.com/model/103720.html","version":"2.0"},"meshes":[{"primitives":[{"mode":4,"indices":1,"material":0,"attributes":{"COLOR_0":9,"POSITION":7,"TEXCOORD_0":10,"NORMAL":8}}],"name":"Aberration_001_Body_01_A"},{"primitives":[{"mode":4,"indices":2,"material":1,"attributes":{"COLOR_0":13,"POSITION":11,"TEXCOORD_0":14,"NORMAL":12}}],"name":"Aberration_001_Body_01_A001"},{"primitives":[{"mode":4,"indices":3,"material":2,"attributes":{"COLOR_0":17,"POSITION":15,"TEXCOORD_0":18,"NORMAL":16}}],"name":"Aberration_001_Body_01_A002"},{"primitives":[{"mode":4,"indices":4,"material":3,"attributes":{"COLOR_0":21,"POSITION":19,"TEXCOORD_0":22,"NORMAL":20}}],"name":"Aberration_001_Body_01_A003"},{"primitives":[{"mode":4,"indices":5,"material":4,"attributes":{"COLOR_0":25,"POSITION":23,"TEXCOORD_0":26,"NORMAL":24}}],"name":"Aberration_001_Body_01_A004"},{"primitives":[{"mode":4,"indices":6,"material":5,"attributes":{"COLOR_0":29,"POSITION":27,"TEXCOORD_0":30,"NORMAL":28}}],"name":"Aberration_001_Body_01_A005"}]}